<svg width="157" height="44" viewBox="0 0 157 44" fill="none" xmlns="http://www.w3.org/2000/svg">
<path d="M28.4189 32.5033C28.9058 34.3539 29.6914 35.0694 31.0797 35.0694C32.519 35.0694 33.2737 34.2005 33.2737 32.5033V0.993424H42.2896V32.5033C42.2896 36.9448 41.7162 38.8693 39.4752 41.1219C37.8601 42.7452 34.8811 44 31.1196 44C28.0806 44 25.1726 42.9892 23.3181 41.1222C21.6922 39.4852 20.7991 37.8038 19.4033 32.503L13.871 11.4967C13.3838 9.64615 12.5985 8.93088 11.2102 8.93088C9.77056 8.93088 9.01584 9.79951 9.01584 11.4967V43.0069H0V11.4967C0 7.05549 0.573685 5.13073 2.81467 2.87814C4.42914 1.25544 7.40848 0 11.1703 0C14.2093 0 17.1173 1.01112 18.9718 2.87783C20.5977 4.5148 21.4908 6.19617 22.8865 11.497L28.4189 32.5033Z" fill="#DB362D"/>
<path d="M147.681 43.0069L137.269 10.2745C137.154 9.91313 137.045 9.60641 136.878 9.40183C136.592 9.05196 136.197 8.86817 135.664 8.86817C135.132 8.86817 134.736 9.05196 134.45 9.40183C134.283 9.6061 134.174 9.91282 134.06 10.2745L123.648 43.0069H114.328L125.702 7.25076C126.294 5.38808 127.141 3.80668 128.216 2.75303C130.061 0.945926 132.234 0 135.664 0C139.094 0 141.268 0.945926 143.112 2.75272C144.187 3.80668 145.034 5.38777 145.627 7.25044L157 43.0066H147.681V43.0069Z" fill="#DB362D"/>
<path d="M101.601 43.0069C107.507 43.0069 110.389 41.7459 112.665 39.4712C115.183 36.9551 116.388 34.202 116.388 30.0918C116.388 26.4599 115.065 23.0959 113.051 21.0829C110.417 18.4507 107.145 17.6212 101.81 17.6212L94.3383 17.6209C91.4832 17.6209 90.3454 17.2741 89.4452 16.3853C88.827 15.7756 88.5372 14.8688 88.5372 13.7999C88.5372 12.695 88.802 11.6038 89.5576 10.8584C90.2283 10.1969 91.1424 9.89326 92.899 9.89326H114.494V0.993424H94.5484C88.6416 0.993424 85.7609 2.25476 83.4843 4.52908C80.9659 7.04524 79.7608 9.79796 79.7608 13.9082C79.7608 17.5408 81.084 20.9044 83.0985 22.9171C85.7327 25.5493 89.004 26.3791 94.3386 26.3791L101.811 26.3798C104.666 26.3798 105.804 26.7259 106.704 27.615C107.322 28.225 107.612 29.1315 107.612 30.2004C107.612 31.3053 107.347 32.3965 106.592 33.1419C105.921 33.8034 105.007 34.107 103.25 34.107H80.9783L72.4361 7.25076C71.8435 5.38808 70.9964 3.80668 69.9217 2.75303C68.077 0.945926 65.9034 0 62.4733 0C59.0433 0 56.8693 0.945926 55.0256 2.75272C53.9505 3.80668 53.1038 5.38777 52.5112 7.25044L41.1379 43.0066H50.4572L60.8694 10.2742C60.9843 9.91282 61.0927 9.6061 61.2595 9.40152C61.5456 9.05165 61.9417 8.86786 62.4739 8.86786C63.0062 8.86786 63.402 9.05165 63.6884 9.40152C63.8552 9.60579 63.9636 9.91251 64.0782 10.2742L74.4904 43.0066H101.601V43.0069Z" fill="#DB362D"/>
</svg>
